<svg width="1819" height="951" viewBox="0 0 1819 951" fill="none" xmlns="http://www.w3.org/2000/svg">
<path d="M1719 12.5C1767.32 12.5 1806.5 51.6751 1806.5 100V437.5H292.5V12.5H1719Z" fill="white" stroke="#21FFF2" stroke-width="25"/>
<path d="M1719 938.5C1767.32 938.5 1806.5 899.325 1806.5 851V513.5H292.5V938.5H1719Z" fill="white" stroke="#FF1785" stroke-width="25"/>
<path d="M0 450H570V665C570 822.401 442.401 950 285 950V950C127.599 950 0 822.401 0 665V450Z" fill="#21FFF2"/>
<path d="M0 500H570V285C570 127.599 442.401 0 285 0V0C127.599 0 0 127.599 0 285V500Z" fill="#FF1785"/>
<rect y="450" width="1819" height="50" fill="black"/>
<path d="M728.116 373H662.955L663.37 328.176H728.116C745.686 328.176 760.42 324.302 772.318 316.555C784.216 308.669 793.208 297.394 799.295 282.729C805.383 267.926 808.426 250.218 808.426 229.604V214.04C808.426 198.13 806.697 184.088 803.238 171.914C799.78 159.739 794.661 149.501 787.882 141.201C781.241 132.9 773.01 126.605 763.187 122.316C753.364 118.028 742.089 115.883 729.361 115.883H661.71V70.8516H729.361C749.56 70.8516 767.96 74.241 784.562 81.02C801.301 87.799 815.759 97.5524 827.933 110.28C840.246 122.87 849.653 137.95 856.156 155.52C862.796 173.09 866.117 192.735 866.117 214.455V229.604C866.117 251.186 862.796 270.831 856.156 288.54C849.653 306.11 840.246 321.189 827.933 333.779C815.759 346.368 801.232 356.053 784.354 362.832C767.476 369.611 748.73 373 728.116 373ZM694.913 70.8516V373H637.845V70.8516H694.913Z" fill="black"/>
<path d="M1051.51 116.713L965.394 373H905.006L1017.9 70.8516H1056.5L1051.51 116.713ZM1123.52 373L1036.99 116.713L1031.8 70.8516H1070.61L1184.12 373H1123.52ZM1119.58 260.732V305.764H957.508V260.732H1119.58Z" fill="black"/>
<path d="M1340.05 70.8516V373H1283.19V70.8516H1340.05ZM1433.85 70.8516V115.883H1190.43V70.8516H1433.85Z" fill="black"/>
<path d="M1592.06 116.713L1505.94 373H1445.55L1558.44 70.8516H1597.04L1592.06 116.713ZM1664.07 373L1577.54 116.713L1572.35 70.8516H1611.15L1724.67 373H1664.07ZM1660.13 260.732V305.764H1498.06V260.732H1660.13Z" fill="black"/>
<path d="M754.056 761.807H676.236V716.983H754.056C766.784 716.983 777.091 714.908 784.977 710.757C793.001 706.469 798.88 700.658 802.616 693.326C806.351 685.855 808.219 677.347 808.219 667.801C808.219 658.532 806.351 649.885 802.616 641.861C798.88 633.837 793.001 627.334 784.977 622.354C777.091 617.374 766.784 614.883 754.056 614.883H694.913V872H637.845V569.852H754.056C777.575 569.852 797.635 574.071 814.237 582.51C830.977 590.811 843.705 602.363 852.42 617.166C861.275 631.831 865.702 648.571 865.702 667.386C865.702 686.893 861.275 703.702 852.42 717.813C843.705 731.924 830.977 742.785 814.237 750.394C797.635 758.003 777.575 761.807 754.056 761.807Z" fill="black"/>
<path d="M971.329 569.852V872H914.261V569.852H971.329Z" fill="black"/>
<path d="M1224.71 827.176V872H1072.81V827.176H1224.71ZM1090.03 569.852V872H1032.96V569.852H1090.03Z" fill="black"/>
<path d="M1454.64 827.176V872H1302.74V827.176H1454.64ZM1319.96 569.852V872H1262.89V569.852H1319.96Z" fill="black"/>
<path d="M1650.96 793.558C1650.96 787.747 1650.06 782.559 1648.26 777.994C1646.6 773.29 1643.48 769.07 1638.92 765.335C1634.49 761.461 1628.2 757.726 1620.04 754.129C1612.01 750.394 1601.64 746.52 1588.91 742.508C1574.8 738.081 1561.65 733.1 1549.48 727.566C1537.3 722.033 1526.58 715.599 1517.31 708.267C1508.18 700.935 1501.06 692.496 1495.94 682.95C1490.82 673.265 1488.26 662.059 1488.26 649.332C1488.26 636.88 1490.89 625.536 1496.15 615.298C1501.54 605.061 1509.15 596.276 1518.97 588.943C1528.8 581.473 1540.35 575.731 1553.63 571.719C1567.05 567.707 1581.85 565.701 1598.04 565.701C1620.45 565.701 1639.82 569.782 1656.14 577.945C1672.61 586.107 1685.33 597.175 1694.33 611.148C1703.32 625.121 1707.82 640.823 1707.82 658.255H1650.96C1650.96 648.847 1648.95 640.547 1644.94 633.353C1641.06 626.159 1635.11 620.486 1627.09 616.336C1619.21 612.186 1609.24 610.11 1597.21 610.11C1585.59 610.11 1575.9 611.84 1568.16 615.298C1560.55 618.757 1554.8 623.461 1550.93 629.41C1547.2 635.359 1545.33 641.999 1545.33 649.332C1545.33 654.865 1546.64 659.846 1549.27 664.273C1551.9 668.562 1555.84 672.643 1561.1 676.517C1566.36 680.252 1572.86 683.78 1580.61 687.1C1588.49 690.282 1597.62 693.464 1608 696.646C1624.6 701.626 1639.13 707.16 1651.58 713.248C1664.17 719.335 1674.61 726.252 1682.91 734C1691.35 741.747 1697.65 750.463 1701.8 760.147C1706.09 769.831 1708.23 780.83 1708.23 793.143C1708.23 806.147 1705.67 817.768 1700.55 828.006C1695.43 838.243 1688.1 846.959 1678.56 854.153C1669.01 861.347 1657.53 866.812 1644.11 870.547C1630.83 874.283 1615.95 876.15 1599.49 876.15C1584.83 876.15 1570.3 874.214 1555.91 870.34C1541.66 866.328 1528.73 860.379 1517.11 852.493C1505.48 844.469 1496.22 834.37 1489.3 822.195C1482.38 809.882 1478.92 795.494 1478.92 779.031H1536.2C1536.2 788.577 1537.72 796.74 1540.76 803.519C1543.94 810.159 1548.37 815.624 1554.04 819.913C1559.85 824.063 1566.63 827.107 1574.38 829.043C1582.13 830.98 1590.5 831.949 1599.49 831.949C1611.11 831.949 1620.66 830.358 1628.13 827.176C1635.74 823.855 1641.41 819.29 1645.15 813.479C1649.02 807.669 1650.96 801.028 1650.96 793.558Z" fill="black"/>
<path d="M193.961 580.262C201.405 580.262 208.187 581.514 214.266 584.07C220.159 586.548 225.224 590.172 229.435 594.925L229.84 595.389L229.863 595.416C234.084 600.467 237.286 606.67 239.514 613.959L239.721 614.642C241.82 621.737 242.848 629.839 242.848 638.914V672.898C242.848 682.261 241.753 690.616 239.52 697.931C237.357 705.161 234.186 711.306 229.96 716.298L229.961 716.299C225.733 721.359 220.557 725.179 214.461 727.742C208.382 730.298 201.6 731.551 194.156 731.551C186.774 731.551 180.026 730.297 173.949 727.742C167.854 725.179 162.677 721.359 158.449 716.299V716.298C154.168 711.318 150.902 705.188 148.609 697.972L148.605 697.959L148.602 697.945C146.365 690.627 145.27 682.267 145.27 672.898V638.914C145.27 629.546 146.365 621.216 148.604 613.959C150.834 606.662 154.072 600.455 158.364 595.401C162.588 590.417 167.723 586.635 173.744 584.074L173.754 584.07C179.83 581.516 186.579 580.262 193.961 580.262ZM336.891 582.312V729.5H304.449V621.471L271.855 633.162L268.512 634.361V605.421L270.162 604.824L332.076 582.461L332.488 582.312H336.891ZM177.663 680.76C177.829 684.386 178.216 687.593 178.816 690.393L178.958 690.973C179.631 693.646 180.493 695.836 181.512 697.584L181.732 697.952L181.748 697.978L181.763 698.003C183.125 700.33 184.795 701.966 186.751 703.023C188.725 704.09 191.163 704.676 194.156 704.676C196.9 704.676 199.216 704.182 201.165 703.268C203.077 702.307 204.698 700.863 206.031 698.868C207.437 696.731 208.547 693.896 209.284 690.271L209.288 690.256L209.291 690.24C210.09 686.553 210.504 682.148 210.504 677V656.383L177.663 680.76ZM193.961 607.234C191.224 607.234 188.916 607.757 186.974 608.729L186.961 608.734L186.947 608.741C185.094 609.642 183.495 611.03 182.155 612.984L182.14 613.008C180.695 615.064 179.533 617.842 178.735 621.443L178.601 622.134C177.95 625.627 177.613 629.78 177.613 634.617V656.2L210.462 631.732C210.278 627.096 209.727 623.179 208.836 619.95L208.829 619.926L208.823 619.901C207.912 616.319 206.589 613.641 204.953 611.732L204.937 611.713L204.92 611.692C203.699 610.207 202.203 609.129 200.393 608.437L200.351 608.421L200.309 608.403C198.517 607.643 196.417 607.234 193.961 607.234Z" fill="black" stroke="black" stroke-width="5"/>
<g filter="url(#filter0_d_9_27)">
<path d="M306 845C306 845 378.814 827.307 420.542 784.042C462.27 740.777 470 681 470 681" stroke="black" stroke-width="50" stroke-linecap="round"/>
</g>
<g filter="url(#filter1_d_9_27)">
<path d="M262.808 84.8078C262.808 84.8078 189.994 102.501 148.266 145.766C106.538 189.031 98.8078 248.808 98.8078 248.808" stroke="black" stroke-width="50" stroke-linecap="round"/>
</g>
<path d="M194.5 350C194.5 334.812 182.188 322.5 167 322.5C151.812 322.5 139.5 334.812 139.5 350L167 350L194.5 350ZM167 350L139.5 350L139.5 450L167 450L194.5 450L194.5 350L167 350Z" fill="black"/>
<path d="M284.5 380C284.5 364.812 272.188 352.5 257 352.5C241.812 352.5 229.5 364.812 229.5 380L257 380L284.5 380ZM257 380L229.5 380L229.5 450L257 450L284.5 450L284.5 380L257 380Z" fill="black"/>
<path d="M374.5 249C374.5 233.812 362.188 221.5 347 221.5C331.812 221.5 319.5 233.812 319.5 249L347 249L374.5 249ZM347 249L319.5 249L319.5 450L347 450L374.5 450L374.5 249L347 249Z" fill="black"/>
<path d="M464.5 183C464.5 167.812 452.188 155.5 437 155.5C421.812 155.5 409.5 167.812 409.5 183L437 183L464.5 183ZM437 183L409.5 183L409.5 450L437 450L464.5 450L464.5 183L437 183Z" fill="black"/>
<defs>
<filter id="filter0_d_9_27" x="276.994" y="655.997" width="222.009" height="222.009" filterUnits="userSpaceOnUse" color-interpolation-filters="sRGB">
<feFlood flood-opacity="0" result="BackgroundImageFix"/>
<feColorMatrix in="SourceAlpha" type="matrix" values="0 0 0 0 0 0 0 0 0 0 0 0 0 0 0 0 0 0 127 0" result="hardAlpha"/>
<feOffset dy="4"/>
<feGaussianBlur stdDeviation="2"/>
<feComposite in2="hardAlpha" operator="out"/>
<feColorMatrix type="matrix" values="0 0 0 0 0 0 0 0 0 0 0 0 0 0 0 0 0 0 0.25 0"/>
<feBlend mode="normal" in2="BackgroundImageFix" result="effect1_dropShadow_9_27"/>
<feBlend mode="normal" in="SourceGraphic" in2="effect1_dropShadow_9_27" result="shape"/>
</filter>
<filter id="filter1_d_9_27" x="69.8051" y="59.802" width="222.009" height="222.009" filterUnits="userSpaceOnUse" color-interpolation-filters="sRGB">
<feFlood flood-opacity="0" result="BackgroundImageFix"/>
<feColorMatrix in="SourceAlpha" type="matrix" values="0 0 0 0 0 0 0 0 0 0 0 0 0 0 0 0 0 0 127 0" result="hardAlpha"/>
<feOffset dy="4"/>
<feGaussianBlur stdDeviation="2"/>
<feComposite in2="hardAlpha" operator="out"/>
<feColorMatrix type="matrix" values="0 0 0 0 0 0 0 0 0 0 0 0 0 0 0 0 0 0 0.25 0"/>
<feBlend mode="normal" in2="BackgroundImageFix" result="effect1_dropShadow_9_27"/>
<feBlend mode="normal" in="SourceGraphic" in2="effect1_dropShadow_9_27" result="shape"/>
</filter>
</defs>
</svg>
